PathFileType	4	(X/Y/Z)	47_1_39_p0_0-336.trc
DataRate	CameraRate	NumFrames	NumMarkers	Units	OrigDataRate	OrigDataStartFrame	OrigNumFrames
41.0	41.0	4	27	m	41.0	0	337
Frame#	Time	RHip			RKnee			RAnkle			RBigToe			RSmallToe			RHeel			LHip			LKnee			LAnkle			LBigToe			LSmallToe			LHeel			Neck			Head			Nose			RShoulder			RElbow			RWrist			RThumb			RIndex			RPinky			LShoulder			LElbow			LWrist			LThumb			LIndex			LPinky			
		X1	Y1	Z1	X2	Y2	Z2	X3	Y3	Z3	X4	Y4	Z4	X5	Y5	Z5	X6	Y6	Z6	X7	Y7	Z7	X8	Y8	Z8	X9	Y9	Z9	X10	Y10	Z10	X11	Y11	Z11	X12	Y12	Z12	X13	Y13	Z13	X14	Y14	Z14	X15	Y15	Z15	X16	Y16	Z16	X17	Y17	Z17	X18	Y18	Z18	X19	Y19	Z19	X20	Y20	Z20	X21	Y21	Z21	X22	Y22	Z22	X23	Y23	Z23	X24	Y24	Z24	X25	Y25	Z25	X26	Y26	Z26	X27	Y27	Z27	
0	0.0	0.3497779506159858	0.38850951664037214	-0.17684687541556124	0.3503026603188561	0.6257531967887932	0.22761878071567654	0.3173442552979249	0.855239865620829	0.5704077238975048	0.35033878340040675	0.7001812039951887	0.6482726799276045	0.4093924382081208	0.7192083654545999	0.6390082233674398	0.26536562842981987	0.9812035145458516	0.6191714226782207	0.15510371267281925	0.353679461261139	-0.14174686267780295	0.13944777990131318	0.5936460790043393	0.23904807582609688	0.12028746792658401	0.8254167268762124	0.5967914058627829	0.20651091579614586	0.6832742804828275	0.655540633986901	0.13440764482280815	0.7199855697343926	0.6679764388788995	0.11928036204220907	0.9031668017468161	0.6320836224060686	0.299104178804355	0.08696022273347846	-0.6417258791837752	0.32312248684066724	-0.1044396791006428	-0.8258409599008997	0.31630152666021705	-0.06631061107941584	-0.6852352743995714	0.4183311976755886	0.16772883385872905	-0.5732078360729365	0.4383027929248174	0.27965634252223015	-0.3531710756663493	0.38738528534527134	0.2543643724952014	-0.1298032908176812	0.3322647894805512	0.3047694567717198	-0.02235723472519654	0.3300013963365709	0.2946025001215422	-0.02550329903501152	0.3248542889185164	0.2557107378198459	-0.008623790642595514	0.1490875862189041	0.07716459037624826	-0.5294602535739742	0.14829292504201042	0.18688101816692052	-0.2907324531596931	0.28654424190065503	0.20102521329015494	-0.09656742422633541	0.3570474561722753	0.25535898467341345	-0.040407613842080886	0.3642154724014754	0.25620374191456385	-0.024071324265609796	0.31491710016328694	0.25696232328593166	-0.0020715037776722956
1	0.024390243902439025	0.34547113731476503	0.3926051174174176	-0.16419729810125394	0.3505118988707543	0.6116359100522903	0.22960066333392506	0.32105452925671224	0.8581689107336529	0.5694920166961523	0.3493073387086078	0.715032493077622	0.6487832228658147	0.40883064599883523	0.7338937243596686	0.6393434367988596	0.26407430801918125	0.9974106487516234	0.6158330067021823	0.16245586328412864	0.359383450974118	-0.1352329190838573	0.13893969032592077	0.5970464022624232	0.23949463184098227	0.12065124517201302	0.8295157794931142	0.6010275525572727	0.21001802071666062	0.6877135381959412	0.6548305479108162	0.1354932235177163	0.7181500101996889	0.664189418326377	0.12925985583490504	0.8842406353824614	0.6260114266583229	0.2990290950593488	0.08732635356218606	-0.6417944122149694	0.3233792349234936	-0.10472249396079425	-0.8258300487981318	0.3163150879635186	-0.06632893085234602	-0.6850959477219692	0.41817065544383397	0.16790424557632405	-0.5731534042446195	0.42991793174155063	0.28869304907034227	-0.35902367463407714	0.39076319440162993	0.25042430241386904	-0.12553822924812064	0.3308758262153666	0.29953934364532003	-0.022056937304986923	0.3289618769477008	0.2950417019770716	-0.01985199245089132	0.31731712245270655	0.28737849982742875	-0.0020801853951518236	0.14906446593739392	0.07747827355010699	-0.5296814096263025	0.14838702013062605	0.1863406519431664	-0.2938876058054484	0.28603950616981555	0.20000821669079852	-0.09631510538739185	0.356764104617114	0.25739318008466466	-0.036187525921031416	0.35641856873839545	0.26896701278829577	-0.02135968627733692	0.3139621624637632	0.25868523592726256	0.0009758370386133765
2	0.04878048780487805	0.3453474262426425	0.38956136465312713	-0.1674448460039255	0.3495200587395591	0.621246745826696	0.2207531064736805	0.321100826332044	0.8579728053554448	0.5694493815843671	0.3587695340657616	0.6850345080603875	0.6466443456899316	0.40892868669225907	0.7335390740398993	0.6394191807763989	0.26501248586733694	0.9795771348437916	0.6160185487679983	0.1623331321606026	0.356254222457185	-0.1389171111982272	0.1387273114490165	0.5931173826649047	0.23555095709982382	0.12079215096803951	0.8295583084451383	0.6010723585253266	0.21015605470192072	0.6872046729339473	0.6547783495293903	0.13436629960930715	0.7203364128025985	0.6679093271709903	0.12932580724161705	0.8844784458818677	0.6260109831199991	0.2990480785462654	0.08723728415012336	-0.6417660294194533	0.32298071639278547	-0.09492489109099377	-0.8310989749863872	0.3162816991268551	-0.06618070610536768	-0.6851338397596399	0.41818693144042657	0.16794367269050567	-0.573171952024084	0.42983769120541976	0.2888792513327489	-0.3590715744063198	0.38751600765771765	0.2470813822376307	-0.12469837863556865	0.3300903165062029	0.2854617737902489	-0.022766736262404153	0.3269101147794449	0.2804891674980556	-0.01704063895885098	0.3250485924058351	0.26087037370320026	-0.00186220053112365	0.14909280970409738	0.07726721376435872	-0.5294516176356312	0.1479782058539354	0.18770884099216625	-0.29072780579007595	0.28555903653376774	0.21242392598706852	-0.09919991189854045	0.3563722857868053	0.26150523719247465	-0.03293911949049035	0.3563570913199843	0.27180920548932724	-0.017908352294181484	0.3153472124842817	0.245027816439666	-0.00023109055089961012
3	0.07317073170731707	0.34858089285930854	0.39295114022394245	-0.16832006891445356	0.35035514910069876	0.6261198015247679	0.22799357510832594	0.3170039959949757	0.8559735817300286	0.5702508485167241	0.3587635317596157	0.6849886710477586	0.6465288536457392	0.40943672895736016	0.7191774491226194	0.6391389566595606	0.2638966688247665	0.997957836764033	0.6156664583487774	0.15320815332971144	0.3716159938942132	-0.13740674875494815	0.1394346294253759	0.597930727232067	0.24310247203039728	0.12080749317027073	0.8295242750424855	0.6011209258017178	0.2101880911132931	0.6873988119498966	0.6547640181593326	0.13454679878372672	0.7199323448134141	0.6678240790807571	0.1294210381187416	0.8841091571703307	0.6261055160213247	0.2990560921899293	0.08719968033948813	-0.641771644666079	0.3234058260002015	-0.10465574920849499	-0.8258198240173041	0.3162535443551787	-0.06620018372877035	-0.6850948050523618	0.41819122710879203	0.1680056106787458	-0.5731697511925294	0.42983839305428884	0.28883623900434824	-0.35909607390347975	0.3874261973659905	0.24688653427419677	-0.12461448141048954	0.330153808948408	0.28550691767842173	-0.020479528700859166	0.32649569789730926	0.2799015321759885	-0.0161922908897177	0.31683057344448645	0.2724246586227449	-0.0028347741739170335	0.14910232132403103	0.0772507219112205	-0.529358613972165	0.13989003693605978	0.19685822219624644	-0.2966069680475883	0.28218813110371704	0.2088441117332723	-0.09801990926597472	0.35691138340065615	0.25830552854770744	-0.036073206363923485	0.3639543817229273	0.26066542852346486	-0.016684517602687434	0.3143205954831969	0.2560771778830836	-0.002718225558616435
